<?xml version="1.0" encoding="UTF-8"?><svg id="Layer_1" xmlns="http://www.w3.org/2000/svg" viewBox="0 0 1408.7 1593.84"><defs><style>.cls-1{stroke-miterlimit:10;}.cls-1,.cls-2{fill:none;stroke:#000;stroke-width:4px;}.cls-3{fill:#fff;}.cls-2{stroke-linecap:square;}</style></defs><path d="M1042.41,1159.82H378.04l-26.36-21.86,10.73-678.02,679.61-12.79,20.27,22.64v670.16c0,10.97-8.9,19.87-19.87,19.87Z"/><g><path class="cls-3" d="M362.91,444.73h668.12c7.66,0,13.88,6.22,13.88,13.88v668.12c0,7.66-6.22,13.88-13.88,13.88H362.91c-7.66,0-13.88-6.22-13.88-13.88V458.61c0-7.66,6.22-13.88,13.88-13.88Z"/><path d="M1031.03,446.73c6.55,0,11.88,5.33,11.88,11.88v668.12c0,6.55-5.33,11.88-11.88,11.88H362.91c-6.55,0-11.88-5.33-11.88-11.88V458.61c0-6.55,5.33-11.88,11.88-11.88h668.12m0-4H362.91c-8.77,0-15.88,7.11-15.88,15.88v668.12c0,8.77,7.11,15.88,15.88,15.88h668.12c8.77,0,15.88-7.11,15.88-15.88V458.61c0-8.77-7.11-15.88-15.88-15.88h0Z"/></g><line class="cls-2" x1="374.71" y1="555.44" x2="1020.54" y2="555.44"/><rect class="cls-1" x="374.71" y="582.22" width="196.83" height="196.83" rx="25" ry="25"/><rect class="cls-1" x="374.71" y="805.83" width="196.83" height="196.83" rx="25" ry="25"/><rect class="cls-1" x="596.55" y="580.68" width="423.98" height="423.98"/><g><path d="M376.03,524.99h1.01v6h-1.01v-6Zm3.42,1.25c-.22-.26-.51-.39-.88-.39-.26,0-.51,.07-.75,.22s-.43,.37-.57,.67c-.14,.3-.22,.67-.22,1.12l-.41-.74c0-.37,.08-.73,.24-1.07,.16-.35,.39-.63,.7-.85,.3-.22,.66-.33,1.08-.33s.8,.11,1.12,.32c.32,.21,.57,.5,.75,.86,.18,.36,.26,.76,.26,1.2v3.74h-1.01v-3.77c0-.39-.11-.72-.32-.98Zm3.74,0c-.22-.26-.51-.39-.88-.39-.26,0-.51,.07-.75,.22s-.43,.37-.57,.67c-.14,.3-.22,.67-.22,1.12l-.65-.86c0-.36,.1-.7,.29-1.03,.2-.33,.47-.59,.81-.8s.73-.31,1.15-.31,.8,.11,1.12,.32c.32,.21,.57,.5,.75,.86,.18,.36,.26,.76,.26,1.2v3.74h-1.01v-3.77c0-.39-.11-.72-.32-.98Z"/><path d="M386.43,523.96c-.1-.06-.19-.14-.25-.25s-.09-.22-.09-.35,.03-.24,.09-.35,.14-.19,.25-.25c.1-.06,.22-.09,.35-.09s.24,.03,.35,.09,.19,.14,.25,.25,.09,.22,.09,.35-.03,.24-.09,.35-.14,.19-.25,.25-.22,.09-.35,.09-.24-.03-.35-.09Zm.85,1.03v6h-1.01v-6h1.01Z"/><path d="M390.26,530.69c-.47-.28-.84-.66-1.12-1.14-.28-.48-.42-1-.42-1.56s.14-1.08,.42-1.56c.28-.48,.65-.86,1.12-1.14,.47-.28,.97-.42,1.52-.42,.6,0,1.13,.13,1.58,.39,.45,.26,.8,.63,1.04,1.1,.24,.47,.37,1.02,.37,1.63s-.12,1.16-.37,1.63c-.24,.47-.59,.84-1.04,1.1-.45,.26-.98,.39-1.58,.39-.54,0-1.05-.14-1.52-.42Zm.1,2.88c-.48-.14-.84-.3-1.1-.49v-1.09h.08c.32,.25,.69,.44,1.12,.59,.43,.14,.87,.22,1.31,.22s.85-.07,1.19-.22c.35-.15,.62-.37,.82-.68,.2-.3,.3-.68,.3-1.14v-5.76h1.01v5.76c0,.63-.15,1.18-.44,1.63s-.69,.8-1.19,1.04c-.5,.24-1.07,.35-1.69,.35-.47,0-.95-.07-1.42-.2Zm2.65-3.73c.34-.19,.61-.45,.8-.77s.29-.69,.29-1.08-.1-.75-.29-1.08c-.19-.33-.46-.59-.8-.77-.34-.19-.73-.28-1.16-.28-.39,0-.75,.1-1.07,.29-.32,.19-.58,.45-.77,.77-.19,.32-.28,.68-.28,1.07s.09,.75,.28,1.07c.19,.32,.44,.58,.77,.77,.32,.19,.68,.29,1.07,.29,.43,0,.82-.09,1.16-.28Z"/><path d="M398.25,529.68c.27,.3,.65,.44,1.13,.44,.36,0,.69-.09,.98-.26,.29-.17,.52-.42,.69-.74,.17-.32,.25-.71,.25-1.16l.46,.41c0,.55-.1,1.03-.31,1.45-.21,.41-.5,.73-.88,.95-.38,.22-.81,.34-1.31,.34-.74,0-1.33-.25-1.77-.74-.44-.49-.65-1.16-.65-2v-3.38h1.01v3.41c0,.56,.13,.99,.4,1.28Zm4.06,1.31h-1.01v-6h1.01v6Z"/><path d="M405.4,530.69c-.51-.28-.91-.65-1.21-1.13s-.44-1-.44-1.57,.14-1.1,.41-1.58c.28-.48,.65-.85,1.13-1.13s1.01-.41,1.59-.41,1.11,.14,1.58,.41,.84,.65,1.1,1.12,.4,1.01,.4,1.59c0,.11,0,.24-.02,.38h-5.62v-.91h5.12l-.49,.53c0-.41-.09-.77-.26-1.1-.17-.32-.42-.58-.73-.76s-.68-.28-1.09-.28-.77,.09-1.1,.28c-.32,.19-.58,.44-.76,.77-.18,.32-.27,.69-.27,1.09s.1,.75,.29,1.08c.2,.33,.47,.59,.83,.77,.36,.19,.77,.28,1.24,.28,.5,0,.95-.09,1.37-.27,.42-.18,.76-.42,1.04-.73h.06v1.15c-.22,.24-.56,.44-1,.59-.44,.16-.93,.23-1.47,.23-.64,0-1.22-.14-1.73-.41Z"/><path d="M412.36,522.35v8.64h-1.01v-8.64h1.01Z"/><path d="M416.8,524.99h1.01v8.64h-1.01v-8.64Zm1.75,5.73c-.45-.26-.8-.63-1.04-1.1-.24-.47-.37-1.02-.37-1.63s.12-1.16,.37-1.63c.24-.47,.59-.84,1.04-1.1,.45-.26,.98-.39,1.58-.39,.54,0,1.05,.14,1.52,.42,.47,.28,.84,.66,1.12,1.14,.28,.48,.42,1,.42,1.56s-.14,1.08-.42,1.56c-.28,.48-.65,.86-1.12,1.14-.47,.28-.97,.42-1.52,.42-.6,0-1.13-.13-1.58-.39Zm2.58-.88c.32-.19,.58-.45,.77-.77,.19-.32,.28-.68,.28-1.07s-.09-.75-.28-1.07c-.19-.32-.44-.58-.77-.77-.32-.19-.68-.29-1.07-.29-.43,0-.82,.09-1.16,.28-.34,.19-.61,.45-.8,.77-.19,.33-.29,.69-.29,1.08s.1,.75,.29,1.08c.19,.33,.46,.59,.8,.77,.34,.19,.73,.28,1.16,.28,.39,0,.75-.1,1.07-.29Z"/><path d="M425.8,530.69c-.47-.28-.84-.66-1.12-1.14-.28-.48-.42-1-.42-1.56s.14-1.08,.42-1.56c.28-.48,.65-.86,1.12-1.14,.47-.28,.97-.42,1.52-.42,.6,0,1.13,.13,1.58,.39,.45,.26,.8,.63,1.04,1.1,.24,.47,.37,1.02,.37,1.63s-.12,1.16-.37,1.63c-.24,.47-.59,.84-1.04,1.1-.45,.26-.98,.39-1.58,.39-.54,0-1.05-.14-1.52-.42Zm2.75-.85c.34-.19,.61-.45,.8-.77s.29-.69,.29-1.08-.1-.75-.29-1.08c-.19-.33-.46-.59-.8-.77-.34-.19-.73-.28-1.16-.28-.39,0-.75,.1-1.07,.29-.32,.19-.58,.45-.77,.77-.19,.32-.28,.68-.28,1.07s.09,.75,.28,1.07c.19,.32,.44,.58,.77,.77,.32,.19,.68,.29,1.07,.29,.43,0,.82-.09,1.16-.28Zm1.09-4.85h1.01v6h-1.01v-6Z"/><path d="M433.67,530.69c-.5-.28-.88-.65-1.16-1.13-.28-.48-.42-1-.42-1.58s.14-1.1,.42-1.58c.28-.48,.66-.85,1.15-1.13,.49-.28,1.03-.41,1.63-.41,.5,0,.93,.07,1.31,.2,.38,.13,.68,.3,.91,.51v1.24h-.1c-.26-.3-.57-.53-.94-.7-.37-.17-.77-.26-1.19-.26s-.79,.09-1.12,.28-.59,.45-.78,.77c-.19,.33-.28,.69-.28,1.08s.09,.76,.28,1.09c.18,.32,.45,.58,.79,.77s.73,.28,1.17,.28c.41,0,.79-.08,1.15-.24s.69-.42,.99-.77h.1v1.22c-.25,.23-.57,.42-.95,.56-.39,.14-.81,.21-1.27,.21-.62,0-1.17-.14-1.67-.41Z"/><path d="M438.94,522.35h1.01v8.64h-1.01v-8.64Zm4.06,3.95c-.27-.3-.65-.44-1.13-.44-.36,0-.69,.09-.98,.26s-.52,.42-.69,.74c-.17,.32-.25,.71-.25,1.16l-.46-.41c0-.55,.1-1.03,.31-1.45,.21-.41,.5-.73,.88-.95,.38-.22,.81-.34,1.31-.34,.74,0,1.33,.25,1.77,.74,.44,.49,.65,1.16,.65,2v3.38h-1.01v-3.41c0-.56-.13-.99-.4-1.28Z"/><path d="M447.43,530.69c-.51-.28-.91-.65-1.21-1.13s-.44-1-.44-1.57,.14-1.1,.41-1.58c.28-.48,.65-.85,1.13-1.13s1.01-.41,1.59-.41,1.11,.14,1.58,.41,.84,.65,1.1,1.12,.4,1.01,.4,1.59c0,.11,0,.24-.02,.38h-5.62v-.91h5.12l-.49,.53c0-.41-.09-.77-.26-1.1-.17-.32-.42-.58-.73-.76s-.68-.28-1.09-.28-.77,.09-1.1,.28c-.32,.19-.58,.44-.76,.77-.18,.32-.27,.69-.27,1.09s.1,.75,.29,1.08c.2,.33,.47,.59,.83,.77,.36,.19,.77,.28,1.24,.28,.5,0,.95-.09,1.37-.27,.42-.18,.76-.42,1.04-.73h.06v1.15c-.22,.24-.56,.44-1,.59-.44,.16-.93,.23-1.47,.23-.64,0-1.22-.14-1.73-.41Z"/><path d="M454.71,530.69c-.5-.28-.88-.65-1.16-1.13-.28-.48-.42-1-.42-1.58s.14-1.1,.42-1.58c.28-.48,.66-.85,1.15-1.13,.49-.28,1.03-.41,1.63-.41,.5,0,.93,.07,1.31,.2,.38,.13,.68,.3,.91,.51v1.24h-.1c-.26-.3-.57-.53-.94-.7-.37-.17-.77-.26-1.19-.26s-.79,.09-1.12,.28-.59,.45-.78,.77c-.19,.33-.28,.69-.28,1.08s.09,.76,.28,1.09c.18,.32,.45,.58,.79,.77s.73,.28,1.17,.28c.41,0,.79-.08,1.15-.24s.69-.42,.99-.77h.1v1.22c-.25,.23-.57,.42-.95,.56-.39,.14-.81,.21-1.27,.21-.62,0-1.17-.14-1.67-.41Z"/><path d="M461.11,530.69c-.48-.28-.86-.66-1.14-1.13-.28-.48-.42-1-.42-1.57s.14-1.09,.42-1.57c.28-.48,.66-.85,1.14-1.13,.48-.28,1-.42,1.57-.42s1.09,.14,1.57,.42c.48,.28,.86,.66,1.14,1.13,.28,.48,.42,1,.42,1.57s-.14,1.09-.42,1.57c-.28,.48-.66,.85-1.14,1.13-.48,.28-1,.42-1.57,.42s-1.09-.14-1.57-.42Zm2.65-.85c.32-.19,.58-.45,.77-.77,.19-.32,.28-.68,.28-1.07s-.09-.75-.28-1.07c-.19-.32-.44-.58-.77-.77-.32-.19-.68-.29-1.07-.29s-.75,.1-1.07,.29c-.32,.19-.58,.45-.77,.77-.19,.32-.28,.68-.28,1.07s.09,.75,.28,1.07c.19,.32,.44,.58,.77,.77,.32,.19,.68,.29,1.07,.29s.75-.1,1.07-.29Z"/><path d="M467.19,531.02c-.1-.06-.19-.14-.25-.25s-.09-.22-.09-.35,.03-.24,.09-.35,.14-.19,.25-.25c.1-.06,.22-.09,.35-.09s.24,.03,.35,.09c.1,.06,.19,.14,.25,.25s.09,.22,.09,.35-.03,.24-.09,.35-.14,.19-.25,.25c-.1,.06-.22,.09-.35,.09s-.24-.03-.35-.09Z"/></g><g><path d="M870.46,1058.24h48.92v23.72h-16.32v-19.16h-.76v19.16h-14.75v-19.16h-.76v19.16h-16.32v-23.72Z"/><path d="M920.15,1058.24h20.28v23.72h-20.28v-23.72Z"/><path d="M943.03,1059.5c1.26-.84,3-1.26,5.23-1.26h31.12v4.71h-18.71c-.25,0-.45,.06-.57,.17-.13,.12-.19,.25-.19,.4v13.85h.76v-13.91h18.71v18.5h-38.23v-19.07c0-1.41,.63-2.54,1.88-3.38Z"/><path d="M980.14,1058.24h18.76v19.16h.76v-19.16h18.76v23.72h-38.28v-23.72Z"/></g><g><path d="M928.73,1091.94h1.01v6h-1.01v-6Zm3.42,1.25c-.22-.26-.51-.39-.88-.39-.26,0-.51,.07-.75,.22-.24,.15-.43,.37-.57,.67-.14,.3-.22,.67-.22,1.12l-.41-.74c0-.37,.08-.73,.24-1.07,.16-.35,.39-.63,.7-.85,.3-.22,.66-.33,1.08-.33s.8,.11,1.12,.32,.57,.5,.75,.86c.18,.36,.26,.76,.26,1.2v3.74h-1.01v-3.77c0-.39-.11-.72-.32-.98Zm3.74,0c-.22-.26-.51-.39-.88-.39-.26,0-.51,.07-.75,.22-.24,.15-.43,.37-.57,.67-.14,.3-.22,.67-.22,1.12l-.65-.86c0-.36,.1-.7,.29-1.03s.47-.59,.81-.8,.73-.31,1.15-.31,.8,.11,1.12,.32,.57,.5,.75,.86c.18,.36,.26,.76,.26,1.2v3.74h-1.01v-3.77c0-.39-.11-.72-.32-.98Z"/><path d="M939.12,1090.92c-.1-.06-.19-.14-.25-.25-.06-.1-.09-.22-.09-.35s.03-.24,.09-.35c.06-.1,.14-.19,.25-.25,.1-.06,.22-.09,.35-.09s.24,.03,.35,.09c.1,.06,.19,.14,.25,.25,.06,.1,.09,.22,.09,.35s-.03,.24-.09,.35c-.06,.1-.14,.19-.25,.25-.1,.06-.22,.09-.35,.09s-.24-.03-.35-.09Zm.85,1.03v6h-1.01v-6h1.01Z"/><path d="M942.95,1097.64c-.47-.28-.84-.66-1.12-1.14-.28-.48-.42-1-.42-1.56s.14-1.08,.42-1.56c.28-.48,.65-.86,1.12-1.14,.47-.28,.97-.42,1.52-.42,.6,0,1.13,.13,1.58,.39s.8,.63,1.04,1.1c.24,.47,.37,1.02,.37,1.63s-.12,1.16-.37,1.63c-.24,.47-.59,.84-1.04,1.1s-.98,.39-1.58,.39c-.54,0-1.05-.14-1.52-.42Zm.1,2.88c-.48-.14-.84-.3-1.1-.49v-1.09h.08c.32,.25,.69,.44,1.12,.59,.43,.14,.87,.22,1.31,.22s.85-.07,1.19-.22c.35-.15,.62-.37,.82-.68,.2-.3,.3-.68,.3-1.14v-5.76h1.01v5.76c0,.63-.15,1.18-.44,1.63s-.69,.8-1.19,1.04c-.5,.24-1.07,.35-1.69,.35-.47,0-.95-.07-1.42-.2Zm2.65-3.73c.34-.19,.61-.45,.8-.77,.19-.33,.29-.69,.29-1.08s-.1-.75-.29-1.08c-.19-.33-.46-.59-.8-.77-.34-.19-.73-.28-1.16-.28-.39,0-.75,.1-1.07,.29s-.58,.45-.77,.77c-.19,.32-.28,.68-.28,1.07s.09,.75,.28,1.07c.19,.32,.44,.58,.77,.77,.32,.19,.68,.29,1.07,.29,.43,0,.82-.09,1.16-.28Z"/><path d="M950.95,1096.64c.27,.3,.65,.44,1.13,.44,.36,0,.69-.09,.98-.26,.29-.17,.52-.42,.69-.74,.17-.32,.25-.71,.25-1.16l.46,.41c0,.55-.1,1.03-.31,1.45s-.5,.73-.88,.95-.81,.34-1.31,.34c-.74,0-1.33-.25-1.77-.74-.44-.49-.65-1.16-.65-2v-3.38h1.01v3.41c0,.56,.13,.99,.4,1.28Zm4.06,1.31h-1.01v-6h1.01v6Z"/><path d="M958.09,1097.65c-.51-.28-.91-.65-1.21-1.13-.29-.48-.44-1-.44-1.57s.14-1.1,.41-1.58c.28-.48,.65-.85,1.13-1.13,.48-.28,1.01-.41,1.59-.41s1.11,.14,1.58,.41c.47,.27,.84,.65,1.1,1.12,.27,.48,.4,1.01,.4,1.59,0,.11,0,.24-.02,.38h-5.62v-.91h5.12l-.49,.53c0-.41-.09-.77-.26-1.1s-.42-.58-.73-.76c-.32-.18-.68-.28-1.09-.28s-.77,.09-1.1,.28c-.32,.19-.58,.44-.76,.77s-.27,.69-.27,1.09,.1,.75,.29,1.08c.2,.33,.47,.59,.83,.77,.36,.19,.77,.28,1.24,.28,.5,0,.95-.09,1.37-.27s.76-.42,1.04-.73h.06v1.15c-.22,.24-.56,.44-1,.59-.44,.16-.93,.23-1.47,.23-.64,0-1.22-.14-1.73-.41Z"/><path d="M965.05,1089.3v8.64h-1.01v-8.64h1.01Z"/><path d="M969.49,1091.94h1.01v8.64h-1.01v-8.64Zm1.75,5.73c-.45-.26-.8-.63-1.04-1.1-.24-.47-.37-1.02-.37-1.63s.12-1.16,.37-1.63c.24-.47,.59-.84,1.04-1.1s.98-.39,1.58-.39c.54,0,1.05,.14,1.52,.42,.47,.28,.84,.66,1.12,1.14,.28,.48,.42,1,.42,1.56s-.14,1.08-.42,1.56c-.28,.48-.65,.86-1.12,1.14-.47,.28-.97,.42-1.52,.42-.6,0-1.13-.13-1.58-.39Zm2.58-.88c.32-.19,.58-.45,.77-.77,.19-.32,.28-.68,.28-1.07s-.09-.75-.28-1.07c-.19-.32-.44-.58-.77-.77s-.68-.29-1.07-.29c-.43,0-.82,.09-1.16,.28-.34,.19-.61,.45-.8,.77-.19,.33-.29,.69-.29,1.08s.1,.75,.29,1.08c.19,.33,.46,.59,.8,.77,.34,.19,.73,.28,1.16,.28,.39,0,.75-.1,1.07-.29Z"/><path d="M978.5,1097.64c-.47-.28-.84-.66-1.12-1.14-.28-.48-.42-1-.42-1.56s.14-1.08,.42-1.56c.28-.48,.65-.86,1.12-1.14,.47-.28,.97-.42,1.52-.42,.6,0,1.13,.13,1.58,.39,.45,.26,.8,.63,1.04,1.1,.24,.47,.37,1.02,.37,1.63s-.12,1.16-.37,1.63c-.24,.47-.59,.84-1.04,1.1-.45,.26-.98,.39-1.58,.39-.54,0-1.05-.14-1.52-.42Zm2.75-.85c.34-.19,.61-.45,.8-.77,.19-.33,.29-.69,.29-1.08s-.1-.75-.29-1.08c-.19-.33-.46-.59-.8-.77-.34-.19-.73-.28-1.16-.28-.39,0-.75,.1-1.07,.29-.32,.19-.58,.45-.77,.77-.19,.32-.28,.68-.28,1.07s.09,.75,.28,1.07c.19,.32,.44,.58,.77,.77,.32,.19,.68,.29,1.07,.29,.43,0,.82-.09,1.16-.28Zm1.09-4.85h1.01v6h-1.01v-6Z"/><path d="M986.36,1097.65c-.5-.28-.88-.65-1.16-1.13-.28-.48-.42-1-.42-1.58s.14-1.1,.42-1.58c.28-.48,.66-.85,1.15-1.13,.49-.28,1.03-.41,1.63-.41,.5,0,.93,.07,1.31,.2s.68,.3,.91,.51v1.24h-.1c-.26-.3-.57-.53-.94-.7s-.77-.26-1.19-.26-.79,.09-1.12,.28c-.33,.19-.59,.45-.78,.77-.19,.33-.28,.69-.28,1.08s.09,.76,.28,1.09c.18,.32,.45,.58,.79,.77,.34,.19,.73,.28,1.17,.28,.41,0,.79-.08,1.15-.24,.36-.16,.69-.42,.99-.77h.1v1.22c-.25,.23-.57,.42-.95,.56s-.81,.21-1.27,.21c-.62,0-1.17-.14-1.67-.41Z"/><path d="M991.63,1089.3h1.01v8.64h-1.01v-8.64Zm4.06,3.95c-.27-.3-.65-.44-1.13-.44-.36,0-.69,.09-.98,.26s-.52,.42-.69,.74-.25,.71-.25,1.16l-.46-.41c0-.55,.1-1.03,.31-1.45,.21-.41,.5-.73,.88-.95,.38-.22,.81-.34,1.31-.34,.74,0,1.33,.25,1.77,.74,.44,.49,.65,1.16,.65,2v3.38h-1.01v-3.41c0-.56-.13-.99-.4-1.28Z"/><path d="M1000.13,1097.65c-.51-.28-.91-.65-1.21-1.13-.29-.48-.44-1-.44-1.57s.14-1.1,.41-1.58c.28-.48,.65-.85,1.13-1.13,.48-.28,1.01-.41,1.59-.41s1.11,.14,1.58,.41c.47,.27,.84,.65,1.1,1.12,.27,.48,.4,1.01,.4,1.59,0,.11,0,.24-.02,.38h-5.62v-.91h5.12l-.49,.53c0-.41-.09-.77-.26-1.1-.17-.32-.42-.58-.73-.76-.32-.18-.68-.28-1.09-.28s-.77,.09-1.1,.28c-.32,.19-.58,.44-.76,.77-.18,.32-.27,.69-.27,1.09s.1,.75,.29,1.08,.47,.59,.83,.77c.36,.19,.77,.28,1.24,.28,.5,0,.95-.09,1.37-.27s.76-.42,1.04-.73h.06v1.15c-.22,.24-.56,.44-1,.59-.44,.16-.93,.23-1.47,.23-.64,0-1.22-.14-1.73-.41Z"/><path d="M1007.4,1097.65c-.5-.28-.88-.65-1.16-1.13-.28-.48-.42-1-.42-1.58s.14-1.1,.42-1.58c.28-.48,.66-.85,1.15-1.13,.49-.28,1.03-.41,1.63-.41,.5,0,.93,.07,1.31,.2s.68,.3,.91,.51v1.24h-.1c-.26-.3-.57-.53-.94-.7-.37-.17-.77-.26-1.19-.26s-.79,.09-1.12,.28c-.33,.19-.59,.45-.78,.77-.19,.33-.28,.69-.28,1.08s.09,.76,.28,1.09c.18,.32,.45,.58,.79,.77,.34,.19,.73,.28,1.17,.28,.41,0,.79-.08,1.15-.24,.36-.16,.69-.42,.99-.77h.1v1.22c-.25,.23-.57,.42-.95,.56-.39,.14-.81,.21-1.27,.21-.62,0-1.17-.14-1.67-.41Z"/><path d="M1013.81,1097.64c-.48-.28-.86-.66-1.14-1.13-.28-.48-.42-1-.42-1.57s.14-1.09,.42-1.57c.28-.48,.66-.85,1.14-1.13,.48-.28,1-.42,1.57-.42s1.09,.14,1.57,.42c.48,.28,.86,.66,1.14,1.13,.28,.48,.42,1,.42,1.57s-.14,1.09-.42,1.57-.66,.85-1.14,1.13c-.48,.28-1,.42-1.57,.42s-1.09-.14-1.57-.42Zm2.65-.85c.32-.19,.58-.45,.77-.77s.28-.68,.28-1.07-.09-.75-.28-1.07c-.19-.32-.44-.58-.77-.77-.32-.19-.68-.29-1.07-.29s-.75,.1-1.07,.29-.58,.45-.77,.77c-.19,.32-.28,.68-.28,1.07s.09,.75,.28,1.07c.19,.32,.44,.58,.77,.77,.32,.19,.68,.29,1.07,.29s.75-.1,1.07-.29Z"/><path d="M1019.88,1097.97c-.1-.06-.19-.14-.25-.25-.06-.1-.09-.22-.09-.35s.03-.24,.09-.35c.06-.1,.14-.19,.25-.25,.1-.06,.22-.09,.35-.09s.24,.03,.35,.09c.1,.06,.19,.14,.25,.25,.06,.1,.09,.22,.09,.35s-.03,.24-.09,.35c-.06,.1-.14,.19-.25,.25-.1,.06-.22,.09-.35,.09s-.24-.03-.35-.09Z"/></g><path d="M1044.89,471.35h-79.29c-11.66,0-21.11-9.45-21.11-21.11v-4.83h85.3c8.34,0,15.09,6.76,15.09,15.09v10.84Z"/><rect x="398.89" y="1045.81" width="48.58" height="48.58" rx="24.29" ry="24.29"/><rect x="506.54" y="1045.81" width="48.58" height="48.58" rx="24.29" ry="24.29"/><rect x="617.45" y="1045.81" width="48.58" height="48.58" rx="24.29" ry="24.29"/><rect x="730.16" y="1045.81" width="48.58" height="48.58" rx="24.29" ry="24.29"/><circle class="cls-3" cx="978.11" cy="457.42" r="6.78"/><circle class="cls-3" cx="998.14" cy="457.42" r="6.78"/><circle class="cls-3" cx="1018.17" cy="457.42" r="6.78"/></svg>